<?xml version="1.0" encoding="UTF-8" ?>
<!DOCTYPE svg PUBLIC "-//W3C//DTD SVG 1.1//EN" "http://www.w3.org/Graphics/SVG/1.1/DTD/svg11.dtd">
<svg width="1000pt" height="1000pt" viewBox="0 0 1000 1000" version="1.1" xmlns="http://www.w3.org/2000/svg">
<g id="#d9d9d9ff">
<path fill="#d9d9d9" opacity="1.00" d=" M 142.59 357.46 C 142.99 357.45 143.80 357.42 144.20 357.41 C 144.59 396.89 144.30 436.39 144.34 475.88 C 172.90 473.44 201.45 470.81 230.05 468.84 C 240.96 468.37 251.84 466.55 262.78 467.30 C 259.08 471.37 254.99 475.05 251.11 478.94 C 252.84 486.23 255.71 493.19 256.91 500.62 C 259.58 507.59 260.58 515.03 262.98 522.09 C 265.06 528.77 266.22 535.74 268.80 542.26 C 269.91 545.13 269.78 548.29 269.64 551.32 C 262.73 551.35 255.86 551.93 249.08 553.24 C 241.92 552.94 234.92 554.77 227.80 554.57 C 226.43 548.38 225.16 542.15 222.86 536.23 C 221.52 528.06 218.13 520.43 216.82 512.26 C 216.14 507.74 213.78 503.72 213.02 499.22 C 211.98 493.75 210.58 488.36 208.55 483.16 C 200.81 483.34 193.10 483.86 185.39 484.53 C 185.43 509.77 185.47 535.01 185.38 560.25 C 179.33 561.69 173.11 562.20 166.94 562.79 C 163.13 563.50 159.45 564.80 155.63 565.49 C 151.23 566.05 146.77 566.08 142.34 565.85 C 142.44 540.23 142.35 514.62 142.38 489.00 C 142.81 445.16 142.51 401.31 142.59 357.46 Z" />
<path fill="#d9d9d9" opacity="1.00" d=" M 624.13 357.40 C 638.19 357.26 652.27 357.13 666.34 357.48 C 666.04 408.12 666.41 458.75 666.42 509.39 C 675.03 510.84 683.84 509.88 692.45 511.40 C 700.20 511.31 707.84 512.77 715.59 512.73 C 718.40 518.61 719.55 525.14 721.33 531.40 C 722.43 537.57 724.88 543.44 725.70 549.67 C 718.07 550.01 710.59 548.32 702.98 548.33 C 696.02 547.15 688.93 547.79 681.97 546.73 C 676.53 546.62 671.21 545.51 665.78 545.28 C 658.24 544.14 650.57 544.91 643.06 543.62 C 636.35 544.01 629.77 542.56 623.09 542.55 C 622.74 541.07 622.54 539.56 622.57 538.06 C 622.60 513.69 622.59 489.32 622.57 464.95 C 622.43 462.58 623.31 460.32 623.38 457.97 C 623.48 424.65 623.25 391.31 623.49 357.99 L 624.13 357.40 M 624.85 359.16 C 624.59 393.08 624.62 427.02 624.84 460.95 C 637.90 461.14 650.94 462.36 664.02 462.11 C 664.19 427.78 664.15 393.45 664.04 359.12 C 650.98 359.40 637.91 359.32 624.85 359.16 Z" />
<path fill="#d9d9d9" opacity="1.00" d=" M 328.52 358.32 C 328.77 387.88 328.55 417.44 328.62 447.00 C 328.74 453.33 328.21 459.70 329.24 465.99 C 329.35 491.66 329.27 517.34 329.27 543.01 C 328.74 546.94 324.01 546.48 321.05 546.53 C 309.84 546.17 298.81 548.84 287.60 548.49 C 287.27 547.01 286.73 545.56 286.73 544.04 C 286.67 517.77 286.83 491.51 286.64 465.24 L 287.59 465.18 C 301.04 464.17 314.53 463.92 327.98 462.85 C 328.22 435.90 328.00 408.95 328.08 382.00 C 328.17 374.10 327.74 366.19 328.52 358.32 Z" />
<path fill="#d9d9d9" opacity="1.00" d=" M 415.53 481.17 C 419.80 473.61 419.27 464.37 423.56 456.79 C 423.66 457.54 423.85 459.04 423.95 459.79 C 429.25 459.86 434.56 459.89 439.87 459.58 C 448.06 459.08 456.30 459.57 464.46 458.47 C 464.24 459.83 464.03 461.20 463.83 462.58 C 463.45 465.88 462.61 469.10 461.51 472.23 C 459.69 477.63 459.01 483.34 457.12 488.72 C 454.80 495.22 453.87 502.10 451.55 508.60 C 449.74 513.21 449.65 518.30 447.69 522.86 C 445.42 528.57 445.18 534.86 442.61 540.47 C 434.74 540.51 426.83 540.25 419.00 541.21 C 408.70 541.37 398.39 542.00 388.09 541.60 C 387.48 535.01 384.47 529.05 383.26 522.60 C 378.10 503.77 372.84 484.95 368.09 466.00 C 367.85 464.18 367.68 462.35 367.50 460.53 C 381.19 461.69 394.98 460.70 408.65 459.71 L 409.59 459.63 C 412.45 466.53 413.30 474.05 415.53 481.17 Z" />
<path fill="#d9d9d9" opacity="1.00" d=" M 506.99 459.06 C 511.44 459.20 515.89 458.90 520.32 458.38 C 520.25 458.85 520.13 459.79 520.06 460.26 C 519.12 467.99 516.85 475.47 514.78 482.95 C 513.50 488.24 512.73 493.67 510.94 498.83 C 509.31 504.97 508.28 511.28 505.95 517.23 C 504.81 523.68 503.11 530.02 501.32 536.32 C 500.88 537.80 499.85 539.56 498.06 539.37 C 486.03 539.33 474.01 539.46 461.98 539.48 C 460.28 539.64 458.72 538.98 457.19 538.39 C 460.04 530.67 461.55 522.57 464.07 514.75 C 469.36 496.09 473.92 477.19 479.59 458.65 L 480.41 458.70 C 489.26 459.42 498.13 458.79 506.99 459.06 Z" />
<path fill="#d9d9d9" opacity="1.00" d=" M 548.63 458.44 C 561.87 459.94 575.26 459.98 588.58 459.70 L 589.44 459.67 C 591.97 466.56 592.54 473.97 595.10 480.85 C 598.97 496.25 603.63 511.45 607.35 526.89 C 608.68 532.03 611.11 537.07 610.71 542.49 C 605.10 542.87 599.60 541.42 594.00 541.62 C 585.25 541.22 576.35 541.76 567.74 540.10 C 562.36 537.07 558.08 532.48 552.99 529.04 C 539.52 518.06 525.53 507.74 512.08 496.72 C 512.34 496.31 512.84 495.49 513.09 495.08 C 515.80 493.54 519.04 494.81 521.99 494.63 C 533.59 494.59 545.20 494.80 556.81 494.69 C 554.44 487.54 553.26 480.10 551.30 472.85 C 550.38 468.05 549.45 463.25 548.63 458.44 Z" />
<path fill="#d9d9d9" opacity="1.00" d=" M 857.58 460.78 C 857.82 465.95 858.05 471.14 858.78 476.28 C 859.16 506.16 858.95 536.07 858.89 565.96 C 853.87 566.04 848.78 565.94 843.93 564.57 C 840.61 563.83 837.37 562.55 833.94 562.52 C 828.64 562.38 823.53 560.62 818.22 560.49 C 812.38 559.42 806.40 559.27 800.65 557.67 C 794.17 557.29 787.71 556.52 781.30 555.57 C 777.00 555.52 772.81 554.67 768.64 553.76 C 764.74 553.44 760.79 553.78 756.96 552.91 C 754.63 552.23 751.69 553.09 749.95 551.04 C 744.83 545.79 739.67 540.57 734.46 535.41 C 732.80 534.09 733.47 531.83 733.31 530.02 C 733.58 515.25 732.90 500.42 733.65 485.68 C 738.48 485.18 743.24 486.74 748.09 486.61 C 757.29 486.38 766.28 488.83 775.48 488.65 C 776.00 496.76 775.44 504.90 775.78 513.02 C 776.42 515.97 778.97 518.59 782.03 518.97 C 791.75 519.95 801.53 520.94 811.17 522.64 C 812.88 521.11 814.73 519.70 816.20 517.92 C 816.44 505.94 816.21 493.94 816.31 481.95 C 816.67 479.42 814.20 477.96 812.71 476.34 C 810.40 473.72 806.65 474.91 803.61 474.40 C 797.41 473.60 791.17 473.41 784.93 473.36 C 777.30 472.56 769.65 471.47 761.96 471.56 C 757.88 471.56 753.22 471.15 750.55 467.62 C 753.70 467.48 756.87 467.45 760.03 467.66 C 784.27 469.46 808.53 471.21 832.75 473.38 C 840.90 474.01 849.03 475.07 857.23 475.20 C 857.18 470.39 857.32 465.58 857.58 460.78 Z" />
</g>
<g id="#ffffffff">
<path fill="#ffffff" opacity="1.00" d=" M 144.20 357.41 C 179.62 357.33 215.04 357.39 250.46 357.38 C 256.09 363.12 262.02 368.58 268.02 373.94 C 268.87 374.90 270.15 375.63 270.50 376.94 C 270.36 404.38 270.18 431.83 270.60 459.26 C 268.11 462.05 265.31 464.54 262.78 467.30 C 251.84 466.55 240.96 468.37 230.05 468.84 C 201.45 470.81 172.90 473.44 144.34 475.88 C 144.30 436.39 144.59 396.89 144.20 357.41 M 214.03 397.25 C 206.01 397.36 197.99 397.39 189.98 397.64 C 188.36 397.56 186.82 398.03 185.28 398.46 C 185.50 413.84 185.29 429.23 185.39 444.61 C 191.73 444.10 198.17 444.93 204.43 443.61 C 211.16 443.69 217.74 442.17 224.48 442.50 C 226.33 440.26 229.38 438.33 229.34 435.12 C 229.23 423.78 229.47 412.43 229.22 401.10 C 227.69 399.36 225.94 397.81 224.04 396.50 C 220.68 396.24 217.31 396.50 214.03 397.25 Z" />
<path fill="#ffffff" opacity="1.00" d=" M 340.12 357.42 C 354.14 357.41 368.17 357.21 382.18 357.53 C 383.17 364.08 385.00 370.52 387.00 376.84 C 392.18 397.05 397.80 417.14 403.24 437.29 C 404.61 444.85 408.32 451.95 408.65 459.71 C 394.98 460.70 381.19 461.69 367.50 460.53 C 367.68 462.35 367.85 464.18 368.09 466.00 C 366.09 456.90 363.75 447.86 361.21 438.89 C 361.04 439.53 360.88 440.18 360.72 440.83 C 361.06 435.04 358.74 429.61 357.18 424.16 C 353.63 409.19 349.09 394.48 345.56 379.51 C 343.18 372.30 341.43 364.88 340.12 357.42 Z" />
<path fill="#ffffff" opacity="1.00" d=" M 449.78 357.53 C 463.80 357.19 477.83 357.43 491.86 357.40 C 491.46 362.17 489.95 366.75 489.04 371.42 C 486.60 376.83 485.97 382.79 484.17 388.40 C 481.56 395.96 480.38 403.92 477.59 411.43 C 473.69 427.41 468.73 443.11 464.78 459.11 C 464.58 460.31 464.43 461.52 464.32 462.74 L 463.83 462.58 C 464.03 461.20 464.24 459.83 464.46 458.47 C 456.30 459.57 448.06 459.08 439.87 459.58 C 434.56 459.89 429.25 459.86 423.95 459.79 C 423.85 459.04 423.66 457.54 423.56 456.79 C 424.24 452.31 425.97 447.96 426.87 443.48 C 429.54 436.56 430.30 429.11 432.90 422.17 C 434.37 417.38 434.78 412.29 436.76 407.66 C 438.55 403.23 438.75 398.40 440.42 393.94 C 442.61 387.69 443.56 381.09 445.73 374.83 C 447.31 369.13 449.38 363.47 449.78 357.53 Z" />
<path fill="#ffffff" opacity="1.00" d=" M 753.69 357.44 C 788.66 357.43 823.63 357.41 858.59 357.45 C 858.89 377.22 858.64 396.99 858.72 416.76 C 848.48 416.80 838.24 416.34 827.99 416.30 C 824.18 415.62 820.32 415.70 816.47 415.56 C 816.29 411.28 816.31 407.00 816.48 402.72 C 815.14 401.28 813.88 399.77 812.50 398.37 C 807.45 395.64 801.50 396.56 796.00 396.29 C 791.00 396.47 786.03 395.56 781.06 395.82 C 778.31 396.88 775.61 399.16 774.78 402.04 C 774.32 409.02 774.80 416.03 774.58 423.02 C 774.74 425.40 774.13 428.18 775.75 430.20 C 777.34 432.19 779.45 434.21 782.18 434.24 C 801.17 436.05 820.27 435.97 839.28 437.50 C 845.33 444.81 852.50 451.11 858.55 458.45 C 858.99 464.36 858.58 470.34 858.78 476.28 C 858.05 471.14 857.82 465.95 857.58 460.78 C 857.32 465.58 857.18 470.39 857.23 475.20 C 849.03 475.07 840.90 474.01 832.75 473.38 C 808.53 471.21 784.27 469.46 760.03 467.66 C 756.87 467.45 753.70 467.48 750.55 467.62 C 745.71 461.75 739.76 456.92 734.75 451.21 C 733.17 449.92 733.67 447.81 733.58 446.04 C 733.69 423.03 733.47 400.00 733.69 376.99 C 736.22 373.13 740.49 370.95 743.50 367.50 C 746.67 363.91 750.77 361.25 753.69 357.44 Z" />
<path fill="#ffffff" opacity="1.00" d=" M 508.48 357.29 C 526.02 357.61 543.59 357.06 561.13 357.56 C 563.27 364.57 564.35 371.89 566.93 378.78 C 569.42 389.24 572.64 399.51 575.14 409.97 C 577.74 416.97 578.61 424.46 581.34 431.41 C 582.27 435.42 583.41 439.42 583.71 443.56 C 584.19 443.57 584.69 443.60 585.19 443.63 C 585.49 449.12 587.51 454.32 588.58 459.70 C 575.26 459.98 561.87 459.94 548.63 458.44 C 544.65 439.98 539.35 421.83 535.41 403.37 C 534.57 403.50 533.75 403.64 532.92 403.78 C 531.86 411.99 529.55 419.95 527.36 427.91 C 525.54 438.20 521.45 447.95 520.32 458.38 C 515.89 458.90 511.44 459.20 506.99 459.06 C 498.13 458.79 489.26 459.42 480.41 458.70 C 480.47 454.28 482.55 450.27 483.53 446.04 C 485.75 436.57 488.98 427.37 490.97 417.85 C 493.53 410.83 494.61 403.39 497.20 396.38 C 499.22 388.48 501.34 380.60 503.52 372.74 C 504.87 367.50 505.99 362.13 508.48 357.29 Z" />
<path fill="#ffffff" opacity="1.00" d=" M 287.54 358.41 C 301.19 358.15 314.86 358.33 328.52 358.32 C 327.74 366.19 328.17 374.10 328.08 382.00 C 328.00 408.95 328.22 435.90 327.98 462.85 C 314.53 463.92 301.04 464.17 287.59 465.18 C 287.43 429.59 287.54 394.00 287.54 358.41 Z" />
<path fill="#ffffff" opacity="1.00" d=" M 624.85 359.16 C 637.91 359.32 650.98 359.40 664.04 359.12 C 664.15 393.45 664.19 427.78 664.02 462.11 C 650.94 462.36 637.90 461.14 624.84 460.95 C 624.62 427.02 624.59 393.08 624.85 359.16 Z" />
<path fill="#ffffff" opacity="1.00" d=" M 341.31 585.33 C 346.84 584.28 353.10 585.80 356.90 590.13 C 362.21 596.53 362.35 606.65 357.28 613.23 C 351.29 620.97 337.83 620.93 332.01 613.00 C 327.27 606.49 327.29 596.73 332.36 590.41 C 334.57 587.66 337.86 585.95 341.31 585.33 M 341.37 587.58 C 331.35 589.49 328.24 602.78 333.34 610.63 C 337.54 617.99 349.07 618.82 354.65 612.65 C 359.64 607.01 359.90 597.76 355.19 591.87 C 351.93 587.86 346.29 586.50 341.37 587.58 Z" />
<path fill="#ffffff" opacity="1.00" d=" M 287.29 586.08 C 295.85 585.90 304.43 586.05 313.00 586.00 C 313.00 586.57 313.00 587.70 313.00 588.27 C 309.15 588.27 305.30 588.26 301.45 588.26 C 301.49 598.17 301.45 608.09 301.47 618.00 C 300.85 618.00 299.62 618.00 299.00 618.00 C 298.99 608.08 299.01 598.17 298.99 588.25 C 295.26 588.22 291.53 588.39 287.81 588.18 C 287.68 587.65 287.42 586.61 287.29 586.08 Z" />
<path fill="#ffffff" opacity="1.00" d=" M 380.00 586.00 C 380.62 586.00 381.85 586.00 382.47 586.00 C 382.53 593.20 382.33 600.40 382.55 607.60 C 382.95 613.47 389.35 617.80 394.94 615.90 C 398.98 615.01 401.79 611.09 401.96 607.07 C 402.07 600.05 401.96 593.02 402.00 586.00 C 402.62 586.00 403.85 586.00 404.47 586.00 C 404.41 593.01 404.55 600.02 404.42 607.02 C 404.38 613.06 399.08 618.49 393.01 618.48 C 386.74 619.18 380.54 614.24 380.17 607.88 C 379.77 600.60 380.11 593.29 380.00 586.00 Z" />
<path fill="#ffffff" opacity="1.00" d=" M 423.00 586.00 C 428.86 586.27 434.84 585.39 440.62 586.53 C 447.68 588.09 450.07 598.16 445.07 603.09 C 443.13 605.19 440.19 605.62 437.56 606.32 C 441.23 610.20 445.01 613.99 448.56 617.99 C 447.73 617.98 446.07 617.97 445.24 617.97 C 441.54 613.94 438.01 609.67 433.91 606.06 C 431.09 605.88 428.27 606.02 425.45 606.02 C 425.47 610.01 425.46 614.00 425.47 618.00 C 424.85 618.00 423.62 618.00 423.00 618.00 C 423.00 607.33 423.00 596.67 423.00 586.00 M 425.45 588.26 C 425.47 593.42 425.47 598.58 425.45 603.74 C 430.44 603.49 435.55 604.30 440.46 603.22 C 447.01 601.03 446.27 590.11 439.61 588.55 C 434.93 587.90 430.16 588.42 425.45 588.26 Z" />
<path fill="#ffffff" opacity="1.00" d=" M 466.13 585.46 C 474.15 593.89 480.85 603.53 488.51 612.30 C 488.56 603.54 488.52 594.77 488.53 586.00 C 489.15 586.00 490.38 586.00 491.00 586.00 C 490.93 596.85 491.14 607.69 490.90 618.53 C 482.91 610.06 476.13 600.49 468.49 591.69 C 468.44 600.46 468.48 609.23 468.47 618.00 C 467.85 618.00 466.62 618.00 466.00 618.00 C 466.08 607.15 465.84 596.30 466.13 585.46 Z" />
<path fill="#ffffff" opacity="1.00" d=" M 522.06 585.98 C 522.74 585.99 524.10 586.02 524.78 586.04 C 529.50 596.74 534.38 607.36 539.12 618.04 C 538.43 618.00 537.05 617.92 536.36 617.88 C 535.28 615.22 534.11 612.60 532.92 610.00 C 526.64 610.04 520.34 609.91 514.06 610.04 C 511.50 612.56 512.32 618.42 507.67 618.26 C 512.20 607.38 517.28 596.74 522.06 585.98 M 523.39 588.51 C 520.38 594.85 517.61 601.30 514.79 607.73 C 520.52 607.73 526.24 607.73 531.97 607.74 C 529.10 601.33 526.30 594.89 523.39 588.51 Z" />
<path fill="#ffffff" opacity="1.00" d=" M 555.00 586.00 C 555.73 586.00 557.20 586.00 557.94 586.00 C 562.06 592.19 566.08 598.46 570.26 604.62 C 574.26 598.44 578.40 592.34 582.31 586.11 C 583.10 586.06 584.67 585.98 585.46 585.94 C 585.48 596.62 585.45 607.31 585.47 618.00 C 584.85 618.00 583.62 618.00 583.00 618.00 C 582.96 608.58 583.07 599.16 582.94 589.75 C 578.63 596.02 574.75 602.59 570.20 608.69 C 565.88 602.44 561.94 595.94 557.50 589.77 C 557.43 599.18 557.48 608.59 557.47 618.00 C 556.85 618.00 555.62 618.00 555.00 618.00 C 555.00 607.33 555.00 596.66 555.00 586.00 Z" />
<path fill="#ffffff" opacity="1.00" d=" M 605.00 586.00 C 612.42 586.00 619.84 586.00 627.27 586.00 C 627.26 586.57 627.25 587.70 627.25 588.27 C 620.65 588.26 614.05 588.27 607.45 588.26 C 607.47 592.42 607.47 596.58 607.45 600.74 C 613.71 600.73 619.98 600.73 626.25 600.73 C 626.25 601.30 626.26 602.43 626.27 603.00 C 619.99 603.01 613.72 602.98 607.45 603.01 C 607.48 607.18 607.46 611.36 607.46 615.53 C 614.18 615.64 620.91 615.32 627.63 615.68 C 627.72 616.22 627.92 617.30 628.02 617.84 C 620.35 618.19 612.67 617.91 605.00 618.00 C 605.00 607.33 605.00 596.67 605.00 586.00 Z" />
<path fill="#ffffff" opacity="1.00" d=" M 646.13 585.47 C 654.15 593.89 660.85 603.53 668.51 612.30 C 668.56 603.53 668.52 594.77 668.53 586.00 C 669.15 586.00 670.38 586.00 671.00 586.00 C 670.93 596.84 671.14 607.69 670.89 618.53 C 662.90 610.06 656.13 600.49 648.49 591.70 C 648.43 600.46 648.48 609.23 648.47 618.00 C 647.85 618.00 646.62 618.00 646.00 618.00 C 646.08 607.15 645.83 596.30 646.13 585.47 Z" />
<path fill="#ffffff" opacity="1.00" d=" M 688.28 586.09 C 696.85 585.89 705.43 586.05 714.00 586.00 C 714.00 586.57 714.00 587.70 714.00 588.27 C 710.15 588.27 706.30 588.26 702.45 588.26 C 702.49 598.17 702.45 608.09 702.47 618.00 C 701.85 618.00 700.62 618.00 700.00 618.00 C 699.99 608.08 700.01 598.17 699.99 588.25 C 696.26 588.22 692.53 588.39 688.81 588.18 C 688.68 587.65 688.42 586.61 688.28 586.09 Z" />
</g>
<g id="#9999993d">
<path fill="#999999" opacity="0.24" d=" M 774.78 402.04 C 775.61 399.16 778.31 396.88 781.06 395.82 C 786.03 395.56 791.00 396.47 796.00 396.29 C 801.50 396.56 807.45 395.64 812.50 398.37 C 808.52 398.40 804.52 398.36 800.57 397.83 C 794.02 396.90 787.32 398.16 780.84 396.56 C 779.03 398.42 775.82 399.88 776.20 402.94 C 776.29 411.63 775.96 420.34 776.37 429.02 C 777.69 430.89 779.44 433.17 781.97 433.25 C 789.07 433.56 796.21 433.42 803.26 434.50 C 814.10 434.88 824.94 435.47 835.79 435.67 C 837.26 435.48 838.33 436.51 839.28 437.50 C 820.27 435.97 801.17 436.05 782.18 434.24 C 779.45 434.21 777.34 432.19 775.75 430.20 C 774.13 428.18 774.74 425.40 774.58 423.02 C 774.80 416.03 774.32 409.02 774.78 402.04 Z" />
<path fill="#999999" opacity="0.24" d=" M 532.92 403.78 C 533.75 403.64 534.57 403.50 535.41 403.37 C 539.35 421.83 544.65 439.98 548.63 458.44 C 549.45 463.25 550.38 468.05 551.30 472.85 C 548.76 468.15 548.65 462.66 547.41 457.56 C 542.96 440.85 539.14 423.98 534.83 407.23 C 533.70 408.54 532.74 410.04 532.64 411.82 C 531.70 418.71 529.18 425.24 527.81 432.04 C 526.28 438.99 523.72 445.68 522.53 452.71 C 521.81 455.24 522.04 458.29 520.06 460.26 C 520.13 459.79 520.25 458.85 520.32 458.38 C 521.45 447.95 525.54 438.20 527.36 427.91 C 529.55 419.95 531.86 411.99 532.92 403.78 Z" />
</g>
</svg>
